<svg width="224" height="58" xmlns="http://www.w3.org/2000/svg"><g fill="#212121" fill-rule="nonzero"><path d="M71.544 18.096c.288 0 .528-.032.72-.096.256-.08.384-.368.384-.864l-.096-8.424.0008-1.513c.0061-.69.0459-1.6657.1192-2.927 1.344-.064 2.616-.096 3.816-.096.656 0 .984-.4.984-1.2 0-.32-.232-.552-.696-.696l-9.72.144c-.288.032-.532.16-.732.384-.2.224-.3.452-.3.684 0 .232.072.428.216.588.144.16.344.24.6.24.976.016 1.792.024 2.448.024l.2385-.0004c.539-.0017.9555-.0096 1.2495-.0236-.0889.637-.1366 2.423-.1432 5.3576l.0002 1.5461c.0073 2.9242.055 4.951.143 6.0803.048.528.304.792.768.792zm10.644-.072c1.256 0 2.264-.544 3.024-1.632.76-1.088 1.14-2.404 1.14-3.948s-.372-2.868-1.116-3.972c-.744-1.104-1.692-1.656-2.844-1.656-1.472 0-2.584.552-3.336 1.656C78.352 9.512 78 10.904 78 12.648c0 1.36.384 2.596 1.152 3.708.768 1.112 1.78 1.668 3.036 1.668zm-.036-2.208c-.608 0-1.152-.32-1.632-.96-.48-.64-.72-1.568-.72-2.784 0-.784.216-1.528.648-2.232.432-.704.984-1.056 1.656-1.056 1.552 0 2.328 1.312 2.328 3.936 0 .672-.064 1.232-.192 1.68-.304.944-1 1.416-2.088 1.416zm15.936 9.672c1.392 0 2.428-.324 3.108-.972.68-.648 1.02-1.66 1.02-3.036 0-.832-.044-2.068-.132-3.708-.088-1.64-.132-2.924-.132-3.852l.048-1.968c0-1.648-.216-2.88-.648-3.696-.496-.928-1.424-1.392-2.784-1.392-1.36 0-2.504.508-3.432 1.524-.928 1.016-1.392 2.364-1.392 4.044 0 2.144.672 3.736 2.016 4.776.64.544 1.4.816 2.28.816.88 0 1.608-.336 2.184-1.008.064.72.096 2.024.096 3.912s-.576 2.832-1.728 2.832c-.368 0-.972-.176-1.812-.528-.84-.352-1.38-.528-1.62-.528-.24 0-.452.088-.636.264-.184.176-.276.432-.276.768 0 .464.432.872 1.296 1.224.864.352 1.712.528 2.544.528zm.12-9.768c-.88 0-1.532-.304-1.956-.912-.424-.608-.636-1.428-.636-2.46s.224-1.884.672-2.556c.448-.672 1.04-1.008 1.776-1.008s1.276.236 1.62.708c.344.472.516 1.292.516 2.46 0 1.152-.096 2.032-.288 2.64-.256.752-.824 1.128-1.704 1.128zm9.072 2.376c.544 0 1.132-.124 1.764-.372.632-.248 1.172-.556 1.62-.924 1.008-.784 1.512-1.384 1.512-1.8 0-.208-.128-.432-.384-.672-.256-.24-.448-.36-.576-.36-.288 0-.768.316-1.44.948-.672.632-1.504.948-2.496.948-.272 0-.488-.088-.648-.264-.512-.432-.856-1.328-1.032-2.688.896 0 1.568-.032 2.016-.096 1.04-.144 1.872-.556 2.496-1.236.624-.68.936-1.384.936-2.112 0-.728-.384-1.34-1.152-1.836-.768-.496-1.576-.744-2.424-.744-1.344 0-2.328.48-2.952 1.44-.624.96-.936 2.104-.936 3.432 0 1.328.208 2.544.624 3.648.656 1.792 1.68 2.688 3.072 2.688zm-1.704-6.888c.144-.848.296-1.392.456-1.632.432-.688.952-1.032 1.56-1.032.896 0 1.344.336 1.344 1.008 0 1.104-1.12 1.656-3.36 1.656zm11.616 6.816c.352 0 .632-.048.84-.144.128-.064.216-.18.264-.348.048-.168.032-.536-.048-1.104-.08-.568-.188-1.82-.324-3.756-.136-1.936-.204-3.232-.204-3.888l1.464.024c.272 0 .548-.008.828-.024.28-.016.544-.128.792-.336.248-.208.372-.52.372-.936 0-.56-.24-.84-.72-.84l-2.808.096c0-3.024.008-4.688.024-4.992.016-.304-.044-.528-.18-.672-.136-.144-.316-.216-.54-.216-.224 0-.464.096-.72.288-.256.192-.392.424-.408.696v4.92c-.032.016-.184.024-.456.024l-1.2-.024c-.896 0-1.344.4-1.344 1.2 0 .56.48.84 1.44.84s1.512-.008 1.656-.024c.112 3.664.328 6.544.648 8.64.064.384.272.576.624.576zm14.208-.144c.992 0 1.836-.276 2.532-.828.696-.552 1.044-1.492 1.044-2.82 0-.912-.252-1.536-.756-1.872-.504-.336-1.228-.596-2.172-.78-.944-.184-1.604-.404-1.98-.66-.376-.256-.564-.608-.564-1.056 0-.448.164-.788.492-1.02.328-.232.724-.348 1.188-.348.464 0 .972.144 1.524.432.552.288.872.436.96.444.088.008.208.012.36.012s.332-.08.54-.24c.208-.16.312-.376.312-.648 0-.528-.408-.952-1.224-1.272-.816-.32-1.668-.48-2.556-.48-.888 0-1.668.28-2.34.84-.672.56-1.008 1.312-1.008 2.256 0 1.328.48 2.184 1.44 2.568.352.144.904.28 1.656.408.752.128 1.312.292 1.68.492.368.2.552.524.552.972 0 .448-.14.844-.42 1.188-.28.344-.688.516-1.224.516s-1.076-.112-1.62-.336c-.544-.224-.896-.336-1.056-.336-.624 0-.936.312-.936.936 0 .544.348.952 1.044 1.224.696.272 1.54.408 2.532.408zm8.808.144c.352 0 .632-.048.84-.144.128-.064.216-.18.264-.348.048-.168.032-.536-.048-1.104-.08-.568-.188-1.82-.324-3.756-.136-1.936-.204-3.232-.204-3.888l1.464.024c.272 0 .548-.008.828-.024.28-.016.544-.128.792-.336.248-.208.372-.52.372-.936 0-.56-.24-.84-.72-.84l-2.808.096c0-3.024.008-4.688.024-4.992.016-.304-.044-.528-.18-.672-.136-.144-.316-.216-.54-.216-.224 0-.464.096-.72.288-.256.192-.392.424-.408.696v4.92c-.032.016-.184.024-.456.024l-1.2-.024c-.896 0-1.344.4-1.344 1.2 0 .56.48.84 1.44.84s1.512-.008 1.656-.024c.112 3.664.328 6.544.648 8.64.064.384.272.576.624.576zm11.448.24c.816 0 1.224-.2 1.224-.6l-.36-5.424c0-.512.008-1.032.024-1.56l.048-1.68v-.408c0-1.2-.352-1.8-1.056-1.8-.368 0-.656.144-.864.432-.64-.224-1.28-.336-1.92-.336-1.36 0-2.404.496-3.132 1.488-.728.992-1.092 2.456-1.092 4.392 0 3.488 1.128 5.232 3.384 5.232 1.216 0 2.192-.392 2.928-1.176.096.256.116.488.06.696-.056.208-.048.384.024.528.072.144.2.216.384.216h.348zm-3.408-2.04c-1.28 0-1.92-1.184-1.92-3.552 0-1.408.224-2.376.672-2.904.448-.528 1.128-.792 2.04-.792.592 0 1.012.232 1.26.696.248.464.372 1.208.372 2.232 0 1.024-.152 1.968-.456 2.832-.16.384-.444.728-.852 1.032-.408.304-.78.456-1.116.456zm7.944 1.896c.256 0 .516-.12.78-.36s.396-.504.396-.792l-.024-2.472c0-2.016.28-3.456.84-4.32.56-.864 1.52-1.296 2.88-1.296.304 0 .572-.1.804-.3.232-.2.348-.468.348-.804 0-.672-.656-1.008-1.968-1.008-.8 0-1.536.2-2.208.6-.672.4-1.176 1-1.512 1.8-.016-.096-.04-.328-.072-.696-.032-.368-.068-.66-.108-.876-.04-.216-.14-.428-.3-.636-.16-.208-.376-.312-.648-.312-.64 0-.96.264-.96.792 0 .112.072.472.216 1.08.32 1.264.536 3.004.648 5.22.112 2.216.176 3.388.192 3.516.096.576.328.864.696.864zm10.92-.096c.352 0 .632-.048.84-.144.128-.064.216-.18.264-.348.048-.168.032-.536-.048-1.104-.08-.568-.188-1.82-.324-3.756-.136-1.936-.204-3.232-.204-3.888l1.464.024c.272 0 .548-.008.828-.024.28-.016.544-.128.792-.336.248-.208.372-.52.372-.936 0-.56-.24-.84-.72-.84l-2.808.096c0-3.024.008-4.688.024-4.992.016-.304-.044-.528-.18-.672-.136-.144-.316-.216-.54-.216-.224 0-.464.096-.72.288-.256.192-.392.424-.408.696v4.92c-.032.016-.184.024-.456.024l-1.2-.024c-.896 0-1.344.4-1.344 1.2 0 .56.48.84 1.44.84s1.512-.008 1.656-.024c.112 3.664.328 6.544.648 8.64.064.384.272.576.624.576zm7.896.072c.544 0 1.132-.124 1.764-.372.632-.248 1.172-.556 1.62-.924 1.008-.784 1.512-1.384 1.512-1.8 0-.208-.128-.432-.384-.672-.256-.24-.448-.36-.576-.36-.288 0-.768.316-1.44.948-.672.632-1.504.948-2.496.948-.272 0-.488-.088-.648-.264-.512-.432-.856-1.328-1.032-2.688.896 0 1.568-.032 2.016-.096 1.04-.144 1.872-.556 2.496-1.236.624-.68.936-1.384.936-2.112 0-.728-.384-1.34-1.152-1.836-.768-.496-1.576-.744-2.424-.744-1.344 0-2.328.48-2.952 1.44-.624.96-.936 2.104-.936 3.432 0 1.328.208 2.544.624 3.648.656 1.792 1.68 2.688 3.072 2.688zm-1.704-6.888c.144-.848.296-1.392.456-1.632.432-.688.952-1.032 1.56-1.032.896 0 1.344.336 1.344 1.008 0 1.104-1.12 1.656-3.36 1.656zm14.88 6.96c.72 0 1.08-.24 1.08-.72 0-1.744-.052-3.624-.156-5.64-.104-2.016-.18-4.176-.228-6.48-.048-2.304-.088-3.56-.12-3.768-.064-.48-.372-.72-.924-.72s-.828.432-.828 1.296l.024 4.632a4.9178 4.9178 0 00-.696-.048c-.656 0-1.336.152-2.04.456-1.136.496-1.972 1.316-2.508 2.46s-.804 2.372-.804 3.684c0 1.312.372 2.416 1.116 3.312.744.896 1.716 1.344 2.916 1.344.944 0 1.76-.272 2.448-.816 0 .672.24 1.008.72 1.008zm-3.084-2.136c-.696 0-1.232-.3-1.608-.9-.376-.6-.564-1.376-.564-2.328s.256-1.86.768-2.724c.256-.432.568-.744.936-.936.368-.192.68-.288.936-.288s.476.02.66.06c.184.04.356.152.516.336.16.184.296.452.408.804.128.336.192 1.104.192 2.304 0 1.072-.2 1.952-.6 2.64-.4.688-.948 1.032-1.644 1.032zM73.728 50.264c.816 0 1.224-.2 1.224-.6l-.36-5.424c0-.512.008-1.032.024-1.56l.048-1.68v-.408c0-1.2-.352-1.8-1.056-1.8-.368 0-.656.144-.864.432-.64-.224-1.28-.336-1.92-.336-1.36 0-2.404.496-3.132 1.488-.728.992-1.092 2.456-1.092 4.392 0 3.488 1.128 5.232 3.384 5.232 1.216 0 2.192-.392 2.928-1.176.096.256.116.488.06.696-.056.208-.048.384.024.528.072.144.2.216.384.216h.348zm-3.408-2.04c-1.28 0-1.92-1.184-1.92-3.552 0-1.408.224-2.376.672-2.904.448-.528 1.128-.792 2.04-.792.592 0 1.012.232 1.26.696.248.464.372 1.208.372 2.232 0 1.024-.152 1.968-.456 2.832-.16.384-.444.728-.852 1.032-.408.304-.78.456-1.116.456zm12.888 1.944c.72 0 1.08-.24 1.08-.72 0-1.744-.052-3.624-.156-5.64-.104-2.016-.18-4.176-.228-6.48-.048-2.304-.088-3.56-.12-3.768-.064-.48-.372-.72-.924-.72s-.828.432-.828 1.296l.024 4.632a4.9178 4.9178 0 00-.696-.048c-.656 0-1.336.152-2.04.456-1.136.496-1.972 1.316-2.508 2.46s-.804 2.372-.804 3.684c0 1.312.372 2.416 1.116 3.312.744.896 1.716 1.344 2.916 1.344.944 0 1.76-.272 2.448-.816 0 .672.24 1.008.72 1.008zm-3.084-2.136c-.696 0-1.232-.3-1.608-.9-.376-.6-.564-1.376-.564-2.328s.256-1.86.768-2.724c.256-.432.568-.744.936-.936.368-.192.68-.288.936-.288s.476.02.66.06c.184.04.356.152.516.336.16.184.296.452.408.804.128.336.192 1.104.192 2.304 0 1.072-.2 1.952-.6 2.64-.4.688-.948 1.032-1.644 1.032zm12.444 2.136c.72 0 1.08-.24 1.08-.72 0-1.744-.052-3.624-.156-5.64-.104-2.016-.18-4.176-.228-6.48-.048-2.304-.088-3.56-.12-3.768-.064-.48-.372-.72-.924-.72s-.828.432-.828 1.296l.024 4.632a4.9178 4.9178 0 00-.696-.048c-.656 0-1.336.152-2.04.456-1.136.496-1.972 1.316-2.508 2.46s-.804 2.372-.804 3.684c0 1.312.372 2.416 1.116 3.312.744.896 1.716 1.344 2.916 1.344.944 0 1.76-.272 2.448-.816 0 .672.24 1.008.72 1.008zm-3.084-2.136c-.696 0-1.232-.3-1.608-.9-.376-.6-.564-1.376-.564-2.328s.256-1.86.768-2.724c.256-.432.568-.744.936-.936.368-.192.68-.288.936-.288s.476.02.66.06c.184.04.356.152.516.336.16.184.296.452.408.804.128.336.192 1.104.192 2.304 0 1.072-.2 1.952-.6 2.64-.4.688-.948 1.032-1.644 1.032zm13.908 9.36c.304 0 .528-.216.672-.648.656-1.84 1.664-5.04 3.024-9.6s2.04-7.072 2.04-7.536c0-.176-.1-.336-.3-.48-.2-.144-.404-.216-.612-.216-.64 0-.992.176-1.056.528-.08.304-.392 1.54-.936 3.708s-.928 3.628-1.152 4.38c-.256-.688-.524-1.352-.804-1.992-.28-.64-.676-1.676-1.188-3.108-.512-1.432-.88-2.436-1.104-3.012-.208-.336-.48-.504-.816-.504-.336 0-.6.104-.792.312-.192.208-.288.376-.288.504s.016.232.048.312c2.304 6.048 3.656 9.408 4.056 10.08-.112.432-.436 1.436-.972 3.012s-.804 2.572-.804 2.988c0 .416.088.732.264.948.176.216.416.324.72.324zm11.364-7.368c1.256 0 2.264-.544 3.024-1.632.76-1.088 1.14-2.404 1.14-3.948s-.372-2.868-1.116-3.972c-.744-1.104-1.692-1.656-2.844-1.656-1.472 0-2.584.552-3.336 1.656-.704 1.04-1.056 2.432-1.056 4.176 0 1.36.384 2.596 1.152 3.708.768 1.112 1.78 1.668 3.036 1.668zm-.036-2.208c-.608 0-1.152-.32-1.632-.96-.48-.64-.72-1.568-.72-2.784 0-.784.216-1.528.648-2.232.432-.704.984-1.056 1.656-1.056 1.552 0 2.328 1.312 2.328 3.936 0 .672-.064 1.232-.192 1.68-.304.944-1 1.416-2.088 1.416zm12.756 2.472c.344 0 .624-.076.84-.228.216-.152.324-.312.324-.48 0-.168-.016-.316-.048-.444-.176-.608-.348-2.032-.516-4.272-.168-2.24-.252-3.928-.252-5.064 0-.672-.248-1.008-.744-1.008-.304 0-.564.12-.78.36-.216.24-.324.528-.324.864 0 1.648.096 3.624.288 5.928-.288.528-.764 1.032-1.428 1.512-.664.48-1.212.72-1.644.72-.288 0-.552-.644-.792-1.932-.24-1.288-.36-2.432-.36-3.432s.048-2.124.144-3.372c-.032-.16-.06-.272-.084-.336-.024-.064-.096-.136-.216-.216-.12-.08-.288-.12-.504-.12-.216 0-.428.092-.636.276-.208.184-.344.412-.408.684-.128 1.712-.192 3.152-.192 4.32 0 1.168.208 2.416.624 3.744.24.688.568 1.232.984 1.632.416.4.888.6 1.416.6 1.136 0 2.264-.584 3.384-1.752.128.64.208 1.12.24 1.44.112.384.34.576.684.576zm4.452-.168c.256 0 .516-.12.78-.36s.396-.504.396-.792l-.024-2.472c0-2.016.28-3.456.84-4.32.56-.864 1.52-1.296 2.88-1.296.304 0 .572-.1.804-.3.232-.2.348-.468.348-.804 0-.672-.656-1.008-1.968-1.008-.8 0-1.536.2-2.208.6-.672.4-1.176 1-1.512 1.8-.016-.096-.04-.328-.072-.696-.032-.368-.068-.66-.108-.876-.04-.216-.14-.428-.3-.636-.16-.208-.376-.312-.648-.312-.64 0-.96.264-.96.792 0 .112.072.472.216 1.08.32 1.264.536 3.004.648 5.22.112 2.216.176 3.388.192 3.516.096.576.328.864.696.864zm19.848.024c.304 0 .568-.096.792-.288.224-.192.332-.432.324-.72-.0064-.2304-.0102-.6451-.0115-1.2442l-.0005-.4838.072-6.096c0-.656-.016-1.2-.048-1.632-.048-.336-.18-.56-.396-.672-.216-.112-.524-.168-.924-.168l-2.784.12-.048-2.04c0-.144.008-.28.024-.408.016-1.248.376-1.872 1.08-1.872.304 0 .584.072.84.216-.128.288-.192.496-.192.624 0 .816.448 1.272 1.344 1.368h.048c.32 0 .616-.144.888-.432.272-.288.408-.608.408-.96 0-.672-.168-1.24-.504-1.704-.448-.608-1.48-.912-3.096-.912-.432 0-.74.012-.924.036-.184.024-.4.128-.648.312s-.444.468-.588.852c-.24.624-.384 2.24-.432 4.848h-.96c-.448 0-.844.064-1.188.192s-.516.4-.516.816c0 .176.048.32.144.432.24.288 1.08.432 2.52.432.048 1.504.128 2.936.24 4.296.112 1.36.168 2.76.168 4.2 0 .512.216.768.648.768.272 0 .536-.096.792-.288.256-.192.384-.448.384-.768 0-1.552-.056-3.148-.168-4.788-.112-1.64-.184-2.78-.216-3.42.24.016.548.024.924.024s.74-.032 1.092-.096l.0004 2.4458c.0066.7866.1025 2.9233.2876 6.4102.112.4.32.6.624.6zm4.512-.024c.256 0 .516-.12.78-.36s.396-.504.396-.792l-.024-2.472c0-2.016.28-3.456.84-4.32.56-.864 1.52-1.296 2.88-1.296.304 0 .572-.1.804-.3.232-.2.348-.468.348-.804 0-.672-.656-1.008-1.968-1.008-.8 0-1.536.2-2.208.6-.672.4-1.176 1-1.512 1.8-.016-.096-.04-.328-.072-.696-.032-.368-.068-.66-.108-.876-.04-.216-.14-.428-.3-.636-.16-.208-.376-.312-.648-.312-.64 0-.96.264-.96.792 0 .112.072.472.216 1.08.32 1.264.536 3.004.648 5.22.112 2.216.176 3.388.192 3.516.096.576.328.864.696.864zm11.352-.24c.992 0 1.836-.276 2.532-.828.696-.552 1.044-1.492 1.044-2.82 0-.912-.252-1.536-.756-1.872-.504-.336-1.228-.596-2.172-.78-.944-.184-1.604-.404-1.98-.66-.376-.256-.564-.608-.564-1.056 0-.448.164-.788.492-1.02.328-.232.724-.348 1.188-.348.464 0 .972.144 1.524.432.552.288.872.436.96.444.088.008.208.012.36.012s.332-.08.54-.24c.208-.16.312-.376.312-.648 0-.528-.408-.952-1.224-1.272-.816-.32-1.668-.48-2.556-.48-.888 0-1.668.28-2.34.84-.672.56-1.008 1.312-1.008 2.256 0 1.328.48 2.184 1.44 2.568.352.144.904.28 1.656.408.752.128 1.312.292 1.68.492.368.2.552.524.552.972 0 .448-.14.844-.42 1.188-.28.344-.688.516-1.224.516s-1.076-.112-1.62-.336c-.544-.224-.896-.336-1.056-.336-.624 0-.936.312-.936.936 0 .544.348.952 1.044 1.224.696.272 1.54.408 2.532.408zm8.808.144c.352 0 .632-.048.84-.144.128-.064.216-.18.264-.348.048-.168.032-.536-.048-1.104-.08-.568-.188-1.82-.324-3.756-.136-1.936-.204-3.232-.204-3.888l1.464.024c.272 0 .548-.008.828-.024.28-.016.544-.128.792-.336.248-.208.372-.52.372-.936 0-.56-.24-.84-.72-.84l-2.808.096c0-3.024.008-4.688.024-4.992.016-.304-.044-.528-.18-.672-.136-.144-.316-.216-.54-.216-.224 0-.464.096-.72.288-.256.192-.392.424-.408.696v4.92c-.032.016-.184.024-.456.024l-1.2-.024c-.896 0-1.344.4-1.344 1.2 0 .56.48.84 1.44.84s1.512-.008 1.656-.024c.112 3.664.328 6.544.648 8.64.064.384.272.576.624.576zm11.664 0c.336 0 .624-.096.864-.288.24-.192.36-.448.36-.768 0-1.664.056-3.24.168-4.728.064-.848.272-1.584.624-2.208.32-.576.88-.864 1.68-.864.608 0 1.048.432 1.32 1.296.112.4.228.94.348 1.62.12.68.18 1.948.18 3.804l-.024 1.344c0 .512.192.768.576.768.576 0 .92-.24 1.032-.72.096-.384.144-.996.144-1.836V45.56c0-4.528-.992-6.792-2.976-6.792-1.296 0-2.376.568-3.24 1.704 0-.464-.032-.912-.096-1.344-.08-.432-.376-.648-.888-.648-.208 0-.416.096-.624.288-.208.192-.312.44-.312.744l.264 9.744c0 .512.2.768.6.768zm13.38 0c1.256 0 2.264-.544 3.024-1.632.76-1.088 1.14-2.404 1.14-3.948s-.372-2.868-1.116-3.972c-.744-1.104-1.692-1.656-2.844-1.656-1.472 0-2.584.552-3.336 1.656-.704 1.04-1.056 2.432-1.056 4.176 0 1.36.384 2.596 1.152 3.708.768 1.112 1.78 1.668 3.036 1.668zm-.036-2.208c-.608 0-1.152-.32-1.632-.96-.48-.64-.72-1.568-.72-2.784 0-.784.216-1.528.648-2.232.432-.704.984-1.056 1.656-1.056 1.552 0 2.328 1.312 2.328 3.936 0 .672-.064 1.232-.192 1.68-.304.944-1 1.416-2.088 1.416zm9.288 2.208c.352 0 .632-.048.84-.144.128-.064.216-.18.264-.348.048-.168.032-.536-.048-1.104-.08-.568-.188-1.82-.324-3.756-.136-1.936-.204-3.232-.204-3.888l1.464.024c.272 0 .548-.008.828-.024.28-.016.544-.128.792-.336.248-.208.372-.52.372-.936 0-.56-.24-.84-.72-.84l-2.808.096c0-3.024.008-4.688.024-4.992.016-.304-.044-.528-.18-.672-.136-.144-.316-.216-.54-.216-.224 0-.464.096-.72.288-.256.192-.392.424-.408.696v4.92c-.032.016-.184.024-.456.024l-1.2-.024c-.896 0-1.344.4-1.344 1.2 0 .56.48.84 1.44.84s1.512-.008 1.656-.024c.112 3.664.328 6.544.648 8.64.064.384.272.576.624.576zm7.896.072c.544 0 1.132-.124 1.764-.372.632-.248 1.172-.556 1.62-.924 1.008-.784 1.512-1.384 1.512-1.8 0-.208-.128-.432-.384-.672-.256-.24-.448-.36-.576-.36-.288 0-.768.316-1.44.948-.672.632-1.504.948-2.496.948-.272 0-.488-.088-.648-.264-.512-.432-.856-1.328-1.032-2.688.896 0 1.568-.032 2.016-.096 1.04-.144 1.872-.556 2.496-1.236.624-.68.936-1.384.936-2.112 0-.728-.384-1.34-1.152-1.836-.768-.496-1.576-.744-2.424-.744-1.344 0-2.328.48-2.952 1.44-.624.96-.936 2.104-.936 3.432 0 1.328.208 2.544.624 3.648.656 1.792 1.68 2.688 3.072 2.688zm-1.704-6.888c.144-.848.296-1.392.456-1.632.432-.688.952-1.032 1.56-1.032.896 0 1.344.336 1.344 1.008 0 1.104-1.12 1.656-3.36 1.656zM52.5637 42.3692c.7801-.9236-.1544-2.284-1.152-2.0038-.4377-1.8574-1.447-3.8605-1.955-5.5042-.8702-2.7159-1.8128-5.646-3.2532-8.2223.2085-1.0692-1.2237-2.0755-2.0748-1.081-10.4326 10.863-23.9903-3.1207-30.3869-12.0727.8519-.8518 1.7754-1.6319 2.5562-2.4127l1.0648-1.0648c.213-.213.4932-1.2104.2093-.9265.071-.071.0702-.2137.1412-.2847C19.125 5.807 4.9821 2.88 2.7018 3.439c-.4274.1405-.8533.5664-.8504 1.1373.0725.2144.074.4998.0036.7136-.2137.0703-.3555.2121-.4266.2832C.5773 6.5676.8013 8.4952.8072 9.637c-.0533 3.496-.0341 7.2063.4835 10.7051.074.4998.7186 1.0028 1.2178.9339.1427.0007.2138-.0704.2856.0013.1425.0009.2846-.1412.4266-.2832.1427.0008.3564-.0695.57-.1397.9238-.7802 1.9884-1.845 3.0563-2.339.0708-.0708.2136-.0702.2846-.1412 5.4298 15.2262 31.2499 41.0462 45.4321 23.995zM8.549 16.5264l-.2869-.2869c-1.1475-1.1476-3.2048 1.1965-4.339 2.6176-.2247-2.0704-.2357-4.211-.3178-6.2806a45.7064 45.7064 0 01-.0228-4.424c.0687-.499-.0052-.9989.0636-1.498-.0015-.2854-.003-.5707-.0754-.7852-.0725-.2145-.1442-.2862-.1442-.2862l-.0009-.1426c.9997.1479 2.5704.2986 2.7847.3712 1.7858.3658 3.4295.8738 5.145 1.4535.6432.2173 2.5036 1.2259 4.1473 1.7338l-.213.213c-1.0662.7794-2.1325 1.5587-3.1263 2.5525-.6388.6389-.3497 1.3539.0806 1.7842 4.6256 11.4402 21.6763 24.7997 32.7552 14.725.797 2.3587 1.5224 4.6457 2.2484 7.0754.5087 1.7864 1.0255 5.1426 2.3897 6.7908C34.9344 55.1214 14.6726 27.903 8.549 16.5264z"/></g></svg>